<?xml version="1.0" standalone="no"?>
<!DOCTYPE svg PUBLIC "-//W3C//DTD SVG 20010904//EN"
 "http://www.w3.org/TR/2001/REC-SVG-20010904/DTD/svg10.dtd">
<svg version="1.0" xmlns="http://www.w3.org/2000/svg"
 width="128.000000pt" height="106.000000pt" viewBox="0 0 128.000000 106.000000"
 preserveAspectRatio="xMidYMid meet">

<g transform="translate(0.000000,106.000000) scale(0.100000,-0.100000)"
fill="#000000" stroke="none">
<path d="M582 1048 c-271 -30 -472 -252 -472 -520 0 -98 18 -168 66 -254 37
-69 142 -173 206 -205 223 -114 466 -79 639 91 252 249 192 654 -121 828 -97
53 -203 73 -318 60z m0 -100 l3 -33 60 0 60 0 3 34 c3 33 4 33 40 27 60 -9
175 -72 228 -124 62 -61 113 -150 93 -163 -8 -5 -22 -9 -33 -9 -17 0 -18 -5
-12 -52 9 -68 12 -71 52 -63 46 8 52 -10 32 -107 -22 -107 -57 -178 -119 -243
l-53 -56 -19 31 c-23 37 -36 37 -87 5 -43 -27 -48 -41 -25 -71 8 -10 15 -22
15 -26 0 -12 -107 -31 -181 -32 -67 0 -169 19 -169 31 0 3 9 17 19 32 23 31
19 39 -30 69 -49 29 -66 28 -84 -8 -13 -26 -19 -29 -35 -20 -30 16 -100 109
-126 166 -23 52 -44 145 -44 195 0 26 2 28 42 26 42 -2 43 -2 52 40 11 54 5
70 -34 78 -37 8 -35 23 12 97 53 84 157 164 251 193 71 23 85 20 89 -17z"/>
<path d="M580 880 c0 -13 7 -20 20 -20 13 0 20 7 20 20 0 13 -7 20 -20 20 -13
0 -20 -7 -20 -20z"/>
<path d="M630 880 c0 -11 5 -20 10 -20 6 0 10 9 10 20 0 11 -4 20 -10 20 -5 0
-10 -9 -10 -20z"/>
<path d="M663 884 c-6 -16 15 -37 29 -28 4 3 8 14 8 25 0 23 -28 26 -37 3z"/>
<path d="M522 874 c2 -10 11 -18 21 -20 18 -2 21 5 9 21 -12 17 -34 17 -30 -1z"/>
<path d="M710 870 c0 -11 4 -20 9 -20 5 0 11 9 14 20 3 13 0 20 -9 20 -8 0
-14 -9 -14 -20z"/>
<path d="M746 874 c-8 -22 -7 -36 2 -30 4 2 14 1 22 -4 15 -9 40 5 40 22 0 6
-8 4 -17 -3 -14 -12 -15 -12 -9 0 5 8 3 17 -5 22 -20 12 -26 11 -33 -7z"/>
<path d="M457 865 c-48 -17 -48 -16 -32 -38 13 -18 24 -16 93 19 5 2 -10 34
-17 34 -3 -1 -23 -7 -44 -15z"/>
<path d="M830 835 c-20 -24 -6 -28 15 -5 10 11 13 20 8 20 -6 0 -16 -7 -23
-15z"/>
<path d="M493 810 c-43 -26 -45 -69 -7 -99 15 -12 32 -21 38 -21 6 0 -4 9 -21
20 -26 15 -33 27 -33 50 0 24 7 33 38 49 20 11 33 20 27 21 -5 0 -25 -9 -42
-20z"/>
<path d="M776 805 c10 -8 24 -14 29 -14 6 0 1 6 -9 14 -11 8 -24 15 -30 15 -5
0 -1 -7 10 -15z"/>
<path d="M558 803 c7 -3 16 -2 19 1 4 3 -2 6 -13 5 -11 0 -14 -3 -6 -6z"/>
<path d="M728 795 c43 -19 52 -43 23 -67 -13 -10 -19 -18 -14 -18 19 0 45 38
39 58 -6 19 -45 42 -69 42 -7 -1 3 -7 21 -15z"/>
<path d="M510 785 c-7 -8 -8 -15 -2 -15 5 0 15 7 22 15 7 8 8 15 2 15 -5 0
-15 -7 -22 -15z"/>
<path d="M700 776 c0 -2 7 -7 16 -10 8 -3 12 -2 9 4 -6 10 -25 14 -25 6z"/>
<path d="M811 757 c-1 -19 -10 -33 -33 -47 -18 -11 -28 -20 -21 -20 7 0 24 10
38 23 20 16 26 29 22 47 -4 24 -4 24 -6 -3z"/>
<path d="M500 743 c0 -9 40 -36 45 -31 2 2 -8 11 -21 21 -13 10 -24 14 -24 10z"/>
<path d="M625 720 c-3 -5 3 -10 15 -10 12 0 18 5 15 10 -3 6 -10 10 -15 10 -5
0 -12 -4 -15 -10z"/>
<path d="M620 680 c0 -5 9 -10 20 -10 11 0 20 5 20 10 0 6 -9 10 -20 10 -11 0
-20 -4 -20 -10z"/>
<path d="M576 663 c-12 -12 -5 -23 14 -23 11 0 20 4 20 9 0 11 -26 22 -34 14z"/>
<path d="M680 655 c-10 -13 -9 -15 9 -15 11 0 21 4 21 9 0 18 -18 21 -30 6z"/>
<path d="M495 553 c-27 -38 -66 -85 -87 -106 l-38 -38 26 -9 c14 -6 62 -9 107
-9 58 1 72 4 47 8 -31 6 -33 8 -13 14 12 5 31 3 42 -2 40 -22 35 -10 -6 13
-35 20 -48 23 -80 15 -21 -5 -42 -9 -47 -9 -12 0 22 51 53 78 l26 23 -25 -6
c-23 -6 -22 -4 11 27 51 47 65 68 47 68 -8 0 -36 -30 -63 -67z"/>
<path d="M764 555 c22 -33 21 -34 -21 -24 -50 11 -65 11 -58 -1 3 -5 20 -10
37 -10 38 0 31 -10 -13 -19 -18 -4 -35 -13 -37 -20 -4 -11 3 -13 32 -8 102 19
100 19 119 -8 24 -34 17 -40 -32 -27 -32 8 -43 7 -52 -4 -9 -11 -6 -16 12 -23
13 -5 18 -10 11 -10 -7 -1 -10 -6 -6 -12 7 -11 117 -3 142 10 14 8 -9 41 -91
133 -45 51 -70 64 -43 23z"/>
<path d="M948 458 c5 -5 16 -8 23 -6 8 3 3 7 -10 11 -17 4 -21 3 -13 -5z"/>
<path d="M688 453 c7 -3 16 -2 19 1 4 3 -2 6 -13 5 -11 0 -14 -3 -6 -6z"/>
<path d="M348 443 c7 -3 16 -2 19 1 4 3 -2 6 -13 5 -11 0 -14 -3 -6 -6z"/>
<path d="M1041 434 c0 -11 3 -14 6 -6 3 7 2 16 -1 19 -3 4 -6 -2 -5 -13z"/>
<path d="M975 390 c-3 -6 1 -7 9 -4 18 7 21 14 7 14 -6 0 -13 -4 -16 -10z"/>
<path d="M334 359 c-1 -22 3 -29 17 -29 10 0 21 5 24 10 3 6 16 10 28 11 20 1
20 1 -4 8 -14 5 -34 13 -45 19 -17 9 -19 6 -20 -19z"/>
<path d="M904 354 c3 -9 6 -18 6 -20 0 -2 11 -4 25 -4 27 0 32 9 13 28 -18 18
-51 15 -44 -4z"/>
<path d="M833 353 c9 -2 25 -2 35 0 9 3 1 5 -18 5 -19 0 -27 -2 -17 -5z"/>
<path d="M463 343 c15 -2 37 -2 50 0 12 2 0 4 -28 4 -27 0 -38 -2 -22 -4z"/>
<path d="M736 321 c-4 -5 3 -7 14 -4 23 6 26 13 6 13 -8 0 -17 -4 -20 -9z"/>
<path d="M617 303 c3 -7 13 -13 23 -13 10 0 20 6 23 13 3 8 -5 12 -23 12 -18
0 -26 -4 -23 -12z"/>
</g>
</svg>
