<?xml version="1.0" standalone="no"?>
<!DOCTYPE svg PUBLIC "-//W3C//DTD SVG 20010904//EN"
 "http://www.w3.org/TR/2001/REC-SVG-20010904/DTD/svg10.dtd">
<svg version="1.0" xmlns="http://www.w3.org/2000/svg"
 width="506.000000pt" height="106.000000pt" viewBox="0 0 506.000000 106.000000"
 preserveAspectRatio="xMidYMid meet">

<g transform="translate(0.000000,106.000000) scale(0.100000,-0.100000)"
fill="#000000" stroke="none">
<path d="M632 1049 c-124 -15 -222 -63 -310 -149 -101 -100 -152 -224 -152
-366 0 -289 230 -513 525 -514 230 0 426 136 501 348 33 95 34 232 0 331 -79
234 -314 379 -564 350z m6 -96 c3 -28 7 -31 45 -35 65 -7 77 -1 77 38 0 32 2
34 28 28 144 -35 260 -122 321 -241 26 -53 26 -53 -4 -53 -32 0 -40 -20 -29
-73 9 -40 11 -42 47 -42 l37 0 0 -50 c0 -108 -58 -242 -140 -320 l-31 -30 -27
32 -27 33 -47 -30 c-27 -17 -48 -33 -48 -36 0 -3 7 -18 15 -35 12 -23 13 -30
3 -33 -7 -2 -28 -9 -47 -15 -69 -22 -259 -9 -276 19 -3 5 2 21 11 35 19 30 15
36 -46 73 -39 23 -47 21 -74 -23 l-19 -29 -50 54 c-76 83 -127 208 -127 314 0
30 2 31 42 31 l42 0 9 49 c9 53 1 66 -40 66 -28 0 -29 10 -2 63 52 102 148
183 267 224 37 12 72 21 77 19 6 -1 11 -16 13 -33z"/>
<path d="M599 896 c-3 -3 -16 -8 -30 -10 -13 -2 -25 -5 -26 -7 -2 -1 -9 -2
-15 -3 -7 -1 -12 -8 -10 -16 6 -28 20 -32 41 -11 12 12 21 17 21 12 0 -6 9 -9
20 -8 22 1 22 3 11 30 -3 10 -9 16 -12 13z"/>
<path d="M630 893 c1 -18 17 -28 47 -30 23 -2 31 1 29 12 -3 23 -16 31 -26 15
-7 -10 -10 -11 -10 -2 0 6 -9 12 -20 12 -11 0 -20 -3 -20 -7z"/>
<path d="M717 886 c-7 -16 1 -26 20 -26 7 0 13 9 13 20 0 23 -25 27 -33 6z"/>
<path d="M767 893 c-10 -10 -8 -43 2 -43 9 0 21 24 21 41 0 11 -14 12 -23 2z"/>
<path d="M796 873 c-9 -23 16 -37 31 -16 7 9 10 20 7 24 -9 15 -31 10 -38 -8z"/>
<path d="M840 861 c-7 -15 -7 -21 0 -21 12 0 25 28 17 36 -3 3 -10 -4 -17 -15z"/>
<path d="M472 848 c6 -16 36 -34 44 -25 9 9 -15 37 -33 37 -8 0 -13 -5 -11
-12z"/>
<path d="M882 840 c-7 -11 -9 -20 -4 -20 10 0 32 22 32 32 0 15 -15 8 -28 -12z"/>
<path d="M535 805 c-14 -13 -25 -30 -25 -38 0 -17 38 -67 50 -67 5 0 -2 11
-15 25 -36 35 -33 56 15 88 13 9 19 17 12 17 -7 0 -24 -11 -37 -25z"/>
<path d="M838 804 c12 -8 22 -26 22 -39 0 -25 -42 -65 -68 -65 -8 0 -12 -3 -9
-6 10 -10 67 17 77 37 6 10 10 26 10 37 0 19 -29 52 -46 52 -4 0 2 -7 14 -16z"/>
<path d="M570 792 c-25 -20 -21 -56 7 -67 15 -5 15 -4 0 13 -21 23 -14 45 16
60 12 6 17 11 11 11 -7 1 -22 -7 -34 -17z"/>
<path d="M793 794 c31 -17 36 -48 10 -63 -10 -6 -13 -11 -7 -11 15 0 34 22 34
41 0 18 -36 49 -55 49 -5 -1 2 -8 18 -16z"/>
<path d="M680 725 c-11 -13 -8 -15 15 -15 23 0 26 2 15 15 -7 8 -14 15 -15 15
-1 0 -8 -7 -15 -15z"/>
<path d="M588 693 c7 -3 16 -2 19 1 4 3 -2 6 -13 5 -11 0 -14 -3 -6 -6z"/>
<path d="M675 690 c-4 -6 5 -10 20 -10 15 0 24 4 20 10 -3 6 -12 10 -20 10 -8
0 -17 -4 -20 -10z"/>
<path d="M625 660 c-4 -6 6 -10 22 -10 22 0 25 2 13 10 -19 12 -27 12 -35 0z"/>
<path d="M730 660 c-12 -8 -9 -10 13 -10 16 0 26 4 22 10 -8 12 -16 12 -35 0z"/>
<path d="M548 557 c-31 -40 -69 -87 -87 -104 -31 -31 -31 -32 -11 -43 22 -12
167 -17 177 -6 4 3 -9 6 -28 7 -30 0 -32 1 -11 9 12 5 30 7 40 4 9 -4 4 3 -13
13 -23 15 -38 18 -65 12 -19 -5 -38 -9 -42 -9 -18 0 -5 25 28 56 25 25 31 34
19 34 -12 0 -5 12 24 41 22 23 41 45 41 50 0 23 -22 3 -72 -64z"/>
<path d="M814 565 c20 -31 20 -38 -1 -31 -52 14 -83 17 -83 7 0 -6 14 -11 30
-11 17 0 30 -4 30 -10 0 -5 -13 -10 -30 -10 -25 0 -30 -4 -30 -25 0 -14 5 -25
11 -25 5 0 8 4 5 8 -3 5 18 14 46 21 54 12 69 7 90 -32 9 -18 8 -19 -26 -13
-41 8 -79 0 -71 -15 4 -5 16 -9 28 -10 20 0 21 -1 3 -8 -53 -20 56 -24 126 -5
22 7 14 23 -37 79 -21 22 -49 55 -62 73 -29 37 -53 44 -29 7z"/>
<path d="M990 460 c-18 -12 -2 -12 25 0 13 6 15 9 5 9 -8 0 -22 -4 -30 -9z"/>
<path d="M398 453 c7 -3 16 -2 19 1 4 3 -2 6 -13 5 -11 0 -14 -3 -6 -6z"/>
<path d="M321 414 c0 -11 3 -14 6 -6 3 7 2 16 -1 19 -3 4 -6 -2 -5 -13z"/>
<path d="M1027 403 c-3 -5 6 -9 20 -10 19 -1 22 1 12 8 -17 11 -26 11 -32 2z"/>
<path d="M391 364 c-9 -20 -8 -24 7 -24 18 0 42 18 42 31 0 4 -9 9 -19 12 -13
3 -22 -3 -30 -19z"/>
<path d="M954 364 c3 -9 6 -18 6 -20 0 -2 11 -4 25 -4 27 0 32 9 13 28 -18 18
-51 15 -44 -4z"/>
<path d="M908 363 c7 -3 16 -2 19 1 4 3 -2 6 -13 5 -11 0 -14 -3 -6 -6z"/>
<path d="M523 353 c15 -2 37 -2 50 0 12 2 0 4 -28 4 -27 0 -38 -2 -22 -4z"/>
<path d="M758 343 c7 -3 16 -2 19 1 4 3 -2 6 -13 5 -11 0 -14 -3 -6 -6z"/>
<path d="M786 331 c-4 -5 3 -7 14 -4 23 6 26 13 6 13 -8 0 -17 -4 -20 -9z"/>
<path d="M675 314 c17 -17 45 -18 45 -1 0 6 -13 12 -29 13 -25 1 -27 -1 -16
-12z"/>
<path d="M1597 895 c-53 -18 -85 -51 -98 -99 -15 -54 -7 -173 14 -212 9 -18
55 -60 101 -95 87 -64 106 -91 106 -151 0 -59 -38 -90 -60 -49 -5 11 -10 47
-10 80 l0 61 -76 0 -76 0 4 -89 c2 -72 7 -95 24 -118 37 -50 81 -68 164 -68
83 0 127 18 164 68 18 24 21 42 21 125 0 53 -3 109 -7 124 -12 41 -54 85 -134
139 -77 51 -88 69 -82 129 3 32 30 61 44 47 4 -4 9 -32 12 -62 l4 -55 74 0 74
0 0 69 c0 54 -5 75 -23 102 -39 59 -155 85 -240 54z"/>
<path d="M1930 530 l0 -370 75 0 75 0 1 113 c1 61 4 159 8 217 l6 105 23 -200
c13 -110 26 -208 28 -217 4 -14 16 -18 54 -18 57 0 48 -28 81 265 11 104 22
192 25 194 2 2 4 -100 4 -227 l0 -232 75 0 75 0 0 370 0 370 -109 0 -109 0 -6
-42 c-3 -24 -11 -90 -17 -148 -7 -58 -15 -108 -19 -113 -3 -4 -14 54 -24 130
-9 76 -20 146 -22 156 -5 15 -19 17 -115 17 l-109 0 0 -370z"/>
<path d="M2520 530 l0 -370 85 0 84 0 3 153 3 152 34 -142 c19 -78 37 -147 41
-153 4 -7 37 -10 87 -8 l80 3 -53 200 -52 200 44 155 c25 85 47 161 49 168 3
9 -16 12 -73 12 l-77 0 -34 -122 c-19 -68 -38 -130 -42 -138 -5 -8 -9 45 -9
123 l0 137 -85 0 -85 0 0 -370z"/>
<path d="M2960 530 l0 -370 75 0 74 0 3 152 3 153 40 -152 39 -153 73 0 73 0
0 370 0 370 -70 0 -70 0 -1 -157 0 -158 -46 158 -46 157 -73 0 -74 0 0 -370z"/>
<path d="M3672 865 c-18 -18 -57 -43 -87 -56 -54 -24 -55 -25 -55 -66 l0 -43
39 0 c69 0 71 -8 71 -292 l0 -248 80 0 80 0 0 370 0 370 -47 -1 c-41 0 -53 -5
-81 -34z"/>
<path d="M3990 825 l0 -75 50 0 50 0 0 -295 0 -295 85 0 85 0 0 295 0 295 50
0 50 0 0 75 0 75 -185 0 -185 0 0 -75z"/>
<path d="M4400 602 c0 -309 -2 -322 -42 -322 -15 0 -18 -9 -18 -61 l0 -62 87
5 c82 4 87 6 115 36 l28 32 0 335 0 335 -85 0 -85 0 0 -298z"/>
<path d="M4610 825 l0 -75 50 0 50 0 0 -295 0 -295 85 0 85 0 0 295 0 295 50
0 50 0 0 75 0 75 -185 0 -185 0 0 -75z"/>
</g>
</svg>
