<?xml version="1.0" standalone="no"?>
<!DOCTYPE svg PUBLIC "-//W3C//DTD SVG 20010904//EN"
 "http://www.w3.org/TR/2001/REC-SVG-20010904/DTD/svg10.dtd">
<svg version="1.0" xmlns="http://www.w3.org/2000/svg"
 width="128.000000pt" height="106.000000pt" viewBox="0 0 128.000000 106.000000"
 preserveAspectRatio="xMidYMid meet">

<g transform="translate(0.000000,106.000000) scale(0.100000,-0.100000)"
fill="#000000" stroke="none">
<path d="M580 878 c0 -14 8 -18 35 -18 29 0 35 4 35 20 0 17 -6 20 -35 18 -26
-1 -35 -7 -35 -20z"/>
<path d="M663 885 c-7 -20 -2 -25 35 -30 23 -3 31 1 35 16 6 21 -18 27 -26 7
-3 -8 -6 -6 -6 5 -1 21 -29 23 -38 2z"/>
<path d="M510 882 c0 -15 16 -29 31 -29 23 0 12 32 -12 34 -10 1 -19 -1 -19
-5z"/>
<path d="M746 873 c-10 -24 -7 -40 4 -23 9 13 10 13 10 0 1 -11 4 -10 16 5 16
19 16 19 9 -5 -7 -22 -6 -23 9 -11 23 19 20 28 -13 39 -24 8 -31 7 -35 -5z"/>
<path d="M468 873 c-10 -2 -18 -8 -18 -13 0 -16 27 -29 48 -23 18 4 20 9 11
24 -10 19 -12 20 -41 12z"/>
<path d="M415 850 c-10 -16 24 -45 37 -32 8 8 6 15 -5 26 -18 19 -24 20 -32 6z"/>
<path d="M826 834 c-10 -25 -1 -27 19 -4 15 17 16 20 3 20 -9 0 -19 -7 -22
-16z"/>
<path d="M472 797 c-12 -13 -22 -31 -22 -41 0 -19 43 -66 60 -66 6 0 -2 12
-19 26 -38 32 -39 56 -5 83 15 12 22 21 17 21 -5 0 -19 -10 -31 -23z"/>
<path d="M760 816 c0 -3 9 -10 20 -16 11 -6 20 -8 20 -6 0 3 -9 10 -20 16 -11
6 -20 8 -20 6z"/>
<path d="M506 784 c-21 -20 -20 -38 1 -55 15 -13 15 -12 3 10 -11 22 -10 27
10 43 12 10 18 18 12 18 -6 0 -18 -7 -26 -16z"/>
<path d="M750 782 c19 -16 21 -22 11 -40 -6 -12 -17 -22 -23 -22 -6 0 -8 -3
-5 -7 9 -8 47 26 47 42 0 13 -32 45 -44 45 -5 0 2 -8 14 -18z"/>
<path d="M700 776 c0 -2 7 -7 16 -10 8 -3 12 -2 9 4 -6 10 -25 14 -25 6z"/>
<path d="M805 770 c11 -18 -5 -50 -33 -65 -15 -8 -21 -14 -14 -15 20 0 62 47
62 70 0 11 -5 20 -11 20 -5 0 -7 -5 -4 -10z"/>
<path d="M626 722 c-3 -6 3 -12 15 -15 12 -3 19 -1 16 6 -5 15 -24 20 -31 9z"/>
<path d="M610 680 c0 -5 11 -10 25 -10 14 0 25 5 25 10 0 6 -11 10 -25 10 -14
0 -25 -4 -25 -10z"/>
<path d="M570 655 c-11 -13 -8 -15 15 -15 23 0 26 2 15 15 -7 8 -14 15 -15 15
-1 0 -8 -7 -15 -15z"/>
<path d="M680 655 c-10 -13 -9 -15 8 -15 15 0 20 5 16 15 -4 8 -7 15 -9 15 -1
0 -8 -7 -15 -15z"/>
<path d="M484 543 c-32 -43 -71 -91 -88 -108 l-29 -30 44 -13 c38 -11 94 -11
177 0 22 3 12 15 -28 33 -28 12 -51 16 -79 11 -36 -5 -40 -4 -34 11 3 10 20
30 36 46 26 23 28 27 11 27 -16 0 -14 5 11 28 17 15 39 37 49 50 16 18 17 22
4 22 -9 0 -42 -35 -74 -77z m84 -140 c-10 -2 -28 -2 -40 0 -13 2 -5 4 17 4 22
1 32 -1 23 -4z"/>
<path d="M750 575 c0 -3 8 -17 17 -32 16 -25 16 -25 -2 -20 -52 15 -98 19 -91
8 4 -6 20 -11 37 -11 40 0 37 -18 -3 -22 -25 -2 -34 -8 -36 -25 -2 -13 2 -23
8 -23 6 0 9 4 6 9 -3 5 11 11 32 15 20 3 47 9 58 12 16 4 27 -2 44 -26 l22
-31 -52 3 c-36 2 -54 -1 -57 -9 -3 -8 5 -13 19 -14 13 0 17 -3 11 -6 -27 -10
-11 -23 30 -23 54 1 116 15 131 31 8 9 7 11 -6 6 -11 -4 -25 5 -41 26 -14 18
-43 52 -66 77 -22 25 -41 48 -41 53 0 8 -20 10 -20 2z"/>
<path d="M940 450 c-8 -5 -10 -10 -5 -10 6 0 17 5 25 10 8 5 11 10 5 10 -5 0
-17 -5 -25 -10z"/>
<path d="M338 443 c7 -3 16 -2 19 1 4 3 -2 6 -13 5 -11 0 -14 -3 -6 -6z"/>
<path d="M1041 434 c0 -11 3 -14 6 -6 3 7 2 16 -1 19 -3 4 -6 -2 -5 -13z"/>
<path d="M300 383 c8 -2 21 -6 28 -9 10 -3 10 -9 2 -24 -9 -17 -8 -20 10 -20
12 0 27 6 35 13 11 12 7 17 -24 30 -21 10 -44 17 -52 16 -11 0 -11 -2 1 -6z"/>
<path d="M880 360 c-23 -7 -23 -8 -3 -9 12 -1 25 -5 28 -11 3 -5 17 -10 31
-10 22 0 23 3 14 20 -11 21 -28 23 -70 10z"/>
<path d="M438 343 c12 -2 32 -2 45 0 12 2 2 4 -23 4 -25 0 -35 -2 -22 -4z"/>
<path d="M810 346 c0 -2 7 -7 16 -10 8 -3 12 -2 9 4 -6 10 -25 14 -25 6z"/>
<path d="M710 331 c0 -10 19 -25 25 -20 1 2 -3 10 -11 17 -8 7 -14 8 -14 3z"/>
<path d="M675 320 c-3 -6 1 -7 9 -4 18 7 21 14 7 14 -6 0 -13 -4 -16 -10z"/>
<path d="M763 323 c9 -2 25 -2 35 0 9 3 1 5 -18 5 -19 0 -27 -2 -17 -5z"/>
<path d="M620 295 c0 -8 9 -15 20 -15 11 0 20 7 20 15 0 8 -9 15 -20 15 -11 0
-20 -7 -20 -15z"/>
</g>
</svg>
