<?xml version="1.0" standalone="no"?>
<!DOCTYPE svg PUBLIC "-//W3C//DTD SVG 20010904//EN"
 "http://www.w3.org/TR/2001/REC-SVG-20010904/DTD/svg10.dtd">
<svg version="1.0" xmlns="http://www.w3.org/2000/svg"
 width="506.000000pt" height="106.000000pt" viewBox="0 0 506.000000 106.000000"
 preserveAspectRatio="xMidYMid meet">

<g transform="translate(0.000000,106.000000) scale(0.100000,-0.100000)"
fill="#000000" stroke="none">
<path d="M600 890 c0 -21 13 -38 26 -33 21 8 17 39 -6 40 -11 1 -20 -2 -20 -7z"/>
<path d="M650 880 c0 -13 7 -20 19 -20 11 0 26 -3 34 -6 9 -3 16 3 20 16 7 29
-19 38 -39 14 -14 -17 -15 -17 -10 -1 3 11 0 17 -9 17 -8 0 -15 -9 -15 -20z"/>
<path d="M545 872 c3 -7 5 -16 5 -18 0 -2 10 -4 21 -4 17 0 19 3 10 13 -6 8
-8 17 -5 20 4 3 -3 5 -15 4 -14 -1 -20 -6 -16 -15z"/>
<path d="M733 875 c-8 -22 6 -33 17 -15 13 20 12 30 0 30 -6 0 -13 -7 -17 -15z"/>
<path d="M770 870 c-15 -27 -12 -34 7 -19 9 8 14 9 10 3 -12 -20 24 -26 38 -7
19 25 7 32 -12 8 -15 -20 -15 -20 -9 1 9 29 -20 40 -34 14z"/>
<path d="M497 873 c-11 -3 -16 -11 -13 -19 3 -8 1 -14 -3 -14 -5 0 -11 6 -14
13 -3 9 -7 9 -17 0 -10 -9 -10 -14 1 -26 11 -12 18 -12 51 2 51 21 47 57 -5
44z"/>
<path d="M850 830 c-6 -11 -7 -20 -3 -20 5 0 14 9 21 20 7 11 8 20 2 20 -5 0
-14 -9 -20 -20z"/>
<path d="M500 800 c-11 -11 -20 -29 -20 -40 0 -23 42 -70 62 -70 7 1 1 7 -14
16 -42 22 -48 62 -14 91 15 13 22 23 17 23 -6 0 -20 -9 -31 -20z"/>
<path d="M803 802 c39 -24 37 -66 -5 -92 -18 -11 -28 -20 -22 -20 26 0 64 42
64 70 0 28 -30 60 -55 60 -5 0 2 -8 18 -18z"/>
<path d="M548 794 c-16 -8 -28 -20 -28 -26 0 -6 7 -4 18 5 9 9 29 20 42 26 14
5 18 10 10 10 -8 0 -27 -7 -42 -15z"/>
<path d="M768 788 c28 -14 28 -42 0 -62 -12 -9 -18 -16 -12 -16 16 0 44 34 44
53 0 15 -29 38 -47 36 -4 0 2 -5 15 -11z"/>
<path d="M520 746 c0 -2 8 -10 18 -17 15 -13 16 -12 3 4 -13 16 -21 21 -21 13z"/>
<path d="M645 720 c-4 -6 5 -10 20 -10 15 0 24 4 20 10 -3 6 -12 10 -20 10 -8
0 -17 -4 -20 -10z"/>
<path d="M640 680 c0 -5 9 -10 20 -10 11 0 20 5 20 10 0 6 -9 10 -20 10 -11 0
-20 -4 -20 -10z"/>
<path d="M596 655 c-4 -11 1 -15 19 -15 28 0 33 15 9 24 -21 8 -21 8 -28 -9z"/>
<path d="M705 660 c-9 -15 -1 -23 21 -18 15 3 16 4 1 16 -11 9 -17 10 -22 2z"/>
<path d="M740 620 c0 -5 5 -10 11 -10 5 0 7 5 4 10 -3 6 -8 10 -11 10 -2 0 -4
-4 -4 -10z"/>
<path d="M554 598 c-11 -13 -28 -34 -39 -46 l-20 -24 32 18 c17 10 39 31 48
46 19 34 6 37 -21 6z"/>
<path d="M785 554 l17 -26 -54 6 -53 5 40 -13 40 -13 -37 -8 c-31 -6 -38 -11
-38 -31 0 -18 5 -24 23 -23 20 0 20 1 3 8 -24 9 -9 16 55 26 41 6 46 4 67 -24
25 -34 19 -37 -37 -21 -47 13 -67 -2 -45 -35 13 -19 21 -22 57 -18 96 10 106
13 104 33 -1 10 -4 17 -8 14 -4 -2 -11 2 -16 10 -4 8 -32 42 -62 75 -55 62
-87 82 -56 35z"/>
<path d="M505 520 c-11 -4 -36 -29 -55 -54 -19 -25 -42 -46 -50 -46 -8 -1 -1
-8 15 -15 18 -9 61 -14 110 -13 44 0 70 3 58 5 -27 5 -31 23 -5 23 15 1 15 2
-2 15 -18 13 -34 13 -88 -2 -30 -8 -21 21 19 60 36 37 36 43 -2 27z"/>
<path d="M968 458 c5 -5 16 -8 23 -6 8 3 3 7 -10 11 -17 4 -21 3 -13 -5z"/>
<path d="M1062 430 c0 -14 2 -19 5 -12 2 6 2 18 0 25 -3 6 -5 1 -5 -13z"/>
<path d="M997 393 c-3 -5 8 -8 25 -9 20 -1 25 2 16 7 -16 11 -35 11 -41 2z"/>
<path d="M362 360 c-6 -11 -12 -22 -12 -25 0 -12 39 -4 51 11 10 13 10 17 -2
25 -20 12 -23 12 -37 -11z"/>
<path d="M948 373 c-31 -5 -34 -13 -16 -31 22 -22 46 -14 44 13 0 14 -1 24 -1
23 0 0 -12 -3 -27 -5z"/>
<path d="M428 353 c7 -3 16 -2 19 1 4 3 -2 6 -13 5 -11 0 -14 -3 -6 -6z"/>
<path d="M833 353 c9 -2 17 -9 17 -14 0 -5 5 -9 11 -9 5 0 8 4 4 9 -3 5 3 12
12 14 10 3 0 5 -22 5 -22 0 -32 -2 -22 -5z"/>
<path d="M533 343 c9 -2 23 -2 30 0 6 3 -1 5 -18 5 -16 0 -22 -2 -12 -5z"/>
<path d="M720 336 c0 -2 7 -6 15 -10 8 -3 15 -1 15 4 0 6 -7 10 -15 10 -8 0
-15 -2 -15 -4z"/>
<path d="M643 305 c6 -17 47 -18 47 -2 0 10 -9 14 -25 13 -14 0 -24 -5 -22
-11z"/>
</g>
</svg>
